<?xml version="1.0" encoding="UTF-8" standalone="no"?>
<!-- Created with Inkscape (http://www.inkscape.org/) -->

<svg
   width="100mm"
   height="100mm"
   viewBox="0 0 100 100"
   version="1.1"
   id="svg1"
   xml:space="preserve"
   inkscape:version="1.4.2 (f4327f4, 2025-05-13)"
   sodipodi:docname="inkspaceLogo.svg"
   inkscape:export-filename="logo.png"
   inkscape:export-xdpi="130.048"
   inkscape:export-ydpi="130.048"
   xmlns:inkscape="http://www.inkscape.org/namespaces/inkscape"
   xmlns:sodipodi="http://sodipodi.sourceforge.net/DTD/sodipodi-0.dtd"
   xmlns="http://www.w3.org/2000/svg"
   xmlns:svg="http://www.w3.org/2000/svg"><sodipodi:namedview
     id="namedview1"
     pagecolor="#ffffff"
     bordercolor="#000000"
     borderopacity="0.25"
     inkscape:showpageshadow="2"
     inkscape:pageopacity="0.0"
     inkscape:pagecheckerboard="0"
     inkscape:deskcolor="#d1d1d1"
     inkscape:document-units="mm"
     inkscape:zoom="1.4142136"
     inkscape:cx="130.4612"
     inkscape:cy="191.97949"
     inkscape:window-width="1920"
     inkscape:window-height="1009"
     inkscape:window-x="1592"
     inkscape:window-y="-8"
     inkscape:window-maximized="1"
     inkscape:current-layer="layer1" /><defs
     id="defs1"><inkscape:path-effect
       effect="fillet_chamfer"
       id="path-effect39"
       is_visible="true"
       lpeversion="1"
       nodesatellites_param="F,0,0,1,0,6.3235773,0,1 @ F,0,0,1,0,6.1645401,0,1 @ F,0,0,1,0,0,0,1 @ F,0,0,1,0,0,0,1"
       radius="0"
       unit="px"
       method="auto"
       mode="F"
       chamfer_steps="1"
       flexible="false"
       use_knot_distance="true"
       apply_no_radius="true"
       apply_with_radius="true"
       only_selected="false"
       hide_knots="false" /><inkscape:path-effect
       effect="fillet_chamfer"
       id="path-effect37"
       is_visible="true"
       lpeversion="1"
       nodesatellites_param="F,0,0,1,0,0,0,1 @ F,0,0,1,0,0,0,1 @ F,0,0,1,0,6.5106854,0,1 @ F,0,0,1,0,4.939141,0,1"
       radius="0"
       unit="px"
       method="auto"
       mode="F"
       chamfer_steps="1"
       flexible="false"
       use_knot_distance="true"
       apply_no_radius="true"
       apply_with_radius="true"
       only_selected="false"
       hide_knots="false" /><rect
       x="5.9999998"
       y="273.99999"
       width="113"
       height="65.499998"
       id="rect21" /><inkscape:path-effect
       effect="fillet_chamfer"
       id="path-effect21"
       is_visible="true"
       lpeversion="1"
       nodesatellites_param="F,0,0,1,0,6.3235773,0,1 @ F,0,0,1,0,6.1645401,0,1 @ F,0,0,1,0,0,0,1 @ F,0,0,1,0,0,0,1"
       radius="0"
       unit="px"
       method="auto"
       mode="F"
       chamfer_steps="1"
       flexible="false"
       use_knot_distance="true"
       apply_no_radius="true"
       apply_with_radius="true"
       only_selected="false"
       hide_knots="false" /><inkscape:path-effect
       effect="fillet_chamfer"
       id="path-effect19"
       is_visible="true"
       lpeversion="1"
       nodesatellites_param="F,0,0,1,0,0,0,1 @ F,0,0,1,0,0,0,1 @ F,0,0,1,0,6.5106854,0,1 @ F,0,0,1,0,4.939141,0,1"
       radius="0"
       unit="px"
       method="auto"
       mode="F"
       chamfer_steps="1"
       flexible="false"
       use_knot_distance="true"
       apply_no_radius="true"
       apply_with_radius="true"
       only_selected="false"
       hide_knots="false" /><inkscape:path-effect
       effect="fillet_chamfer"
       id="path-effect57"
       is_visible="true"
       lpeversion="1"
       nodesatellites_param="F,0,0,1,0,0,0,1 @ F,0,0,1,0,0,0,1 @ F,0,0,1,0,0,0,1 @ F,0,0,1,0,0,0,1 @ F,0,0,1,0,0,0,1 @ F,0,0,1,0,0,0,1 @ F,0,0,1,0,0.61919214,0,1 @ F,0,0,1,0,0.53312822,0,1"
       radius="0"
       unit="px"
       method="auto"
       mode="F"
       chamfer_steps="1"
       flexible="false"
       use_knot_distance="true"
       apply_no_radius="true"
       apply_with_radius="true"
       only_selected="false"
       hide_knots="false" /><inkscape:path-effect
       effect="fillet_chamfer"
       id="path-effect55"
       is_visible="true"
       lpeversion="1"
       nodesatellites_param="F,0,0,1,0,2,0,1 @ F,0,0,1,0,2,0,1 @ F,0,0,1,0,2,0,1"
       radius="0"
       unit="px"
       method="auto"
       mode="F"
       chamfer_steps="1"
       flexible="false"
       use_knot_distance="true"
       apply_no_radius="true"
       apply_with_radius="true"
       only_selected="false"
       hide_knots="false" /><inkscape:path-effect
       effect="fillet_chamfer"
       id="path-effect53"
       is_visible="true"
       lpeversion="1"
       nodesatellites_param="F,0,0,1,0,0,0,1 @ F,0,0,1,0,0,0,1 @ F,0,0,1,0,0,0,1 @ F,0,0,1,0,0,0,1 @ F,0,0,1,0,0,0,1 @ F,0,0,1,0,0,0,1 @ F,0,0,1,0,0.61919214,0,1 @ F,0,0,1,0,0.53312822,0,1"
       radius="0"
       unit="px"
       method="auto"
       mode="F"
       chamfer_steps="1"
       flexible="false"
       use_knot_distance="true"
       apply_no_radius="true"
       apply_with_radius="true"
       only_selected="false"
       hide_knots="false" /><inkscape:path-effect
       effect="fillet_chamfer"
       id="path-effect51"
       is_visible="true"
       lpeversion="1"
       nodesatellites_param="F,0,0,1,0,0,0,1 @ F,0,0,1,0,0,0,1 @ F,0,0,1,0,0,0,1 @ F,0,0,1,0,0,0,1 @ F,0,0,1,0,0,0,1 @ F,0,0,1,0,0,0,1 @ F,0,0,1,0,0.61919214,0,1 @ F,0,0,1,0,0.53312822,0,1"
       radius="0"
       unit="px"
       method="auto"
       mode="F"
       chamfer_steps="1"
       flexible="false"
       use_knot_distance="true"
       apply_no_radius="true"
       apply_with_radius="true"
       only_selected="false"
       hide_knots="false" /><inkscape:path-effect
       effect="fillet_chamfer"
       id="path-effect49"
       is_visible="true"
       lpeversion="1"
       nodesatellites_param="F,0,0,1,0,0,0,1 @ F,0,0,1,0,0,0,1 @ F,0,0,1,0,0,0,1 @ F,0,0,1,0,0,0,1 @ F,0,0,1,0,0.28497839,0,1 @ F,0,0,1,0,0,0,1 @ F,0,0,1,0,0,0,1 @ F,0,0,1,0,0.23002928,0,1 @ F,0,0,1,0,0,0,1 @ F,0,0,1,0,0,0,1 @ F,0,0,1,0,0,0,1 @ F,0,0,1,0,0,0,1"
       radius="0"
       unit="px"
       method="auto"
       mode="F"
       chamfer_steps="1"
       flexible="false"
       use_knot_distance="true"
       apply_no_radius="true"
       apply_with_radius="true"
       only_selected="false"
       hide_knots="false" /><inkscape:path-effect
       effect="fillet_chamfer"
       id="path-effect47"
       is_visible="true"
       lpeversion="1"
       nodesatellites_param="F,0,0,1,0,0,0,1 @ F,0,0,1,0,0,0,1 @ F,0,0,1,0,0,0,1 @ F,0,0,1,0,0,0,1 @ F,0,0,1,0,0,0,1 @ F,0,0,1,0,0,0,1 @ F,0,0,1,0,0.61919214,0,1 @ F,0,0,1,0,0.53312822,0,1"
       radius="0"
       unit="px"
       method="auto"
       mode="F"
       chamfer_steps="1"
       flexible="false"
       use_knot_distance="true"
       apply_no_radius="true"
       apply_with_radius="true"
       only_selected="false"
       hide_knots="false" /><inkscape:path-effect
       effect="fillet_chamfer"
       id="path-effect20"
       is_visible="true"
       lpeversion="1"
       nodesatellites_param="F,0,0,1,0,0,0,1 @ F,0,0,1,0,0,0,1 @ F,0,0,1,0,0,0,1 @ F,0,0,1,0,0,0,1 @ F,0,0,1,0,0,0,1 @ F,0,0,1,0,0,0,1 @ F,0,0,1,0,0.61919214,0,1 @ F,0,0,1,0,0.53312822,0,1"
       radius="0"
       unit="px"
       method="auto"
       mode="F"
       chamfer_steps="1"
       flexible="false"
       use_knot_distance="true"
       apply_no_radius="true"
       apply_with_radius="true"
       only_selected="false"
       hide_knots="false" /><inkscape:path-effect
       effect="fillet_chamfer"
       id="path-effect18"
       is_visible="true"
       lpeversion="1"
       nodesatellites_param="F,0,0,1,0,0,0,1 @ F,0,0,1,0,0,0,1 @ F,0,0,1,0,0,0,1 @ F,0,0,1,0,0,0,1 @ F,0,0,1,0,0,0,1 @ F,0,0,1,0,0,0,1 @ F,0,0,1,0,0.61919214,0,1 @ F,0,0,1,0,0.53312822,0,1"
       radius="0"
       unit="px"
       method="auto"
       mode="F"
       chamfer_steps="1"
       flexible="false"
       use_knot_distance="true"
       apply_no_radius="true"
       apply_with_radius="true"
       only_selected="false"
       hide_knots="false" /><inkscape:path-effect
       effect="fillet_chamfer"
       id="path-effect16"
       is_visible="true"
       lpeversion="1"
       nodesatellites_param="F,0,0,1,0,2,0,1 @ F,0,0,1,0,2,0,1 @ F,0,0,1,0,2,0,1"
       radius="0"
       unit="px"
       method="auto"
       mode="F"
       chamfer_steps="1"
       flexible="false"
       use_knot_distance="true"
       apply_no_radius="true"
       apply_with_radius="true"
       only_selected="false"
       hide_knots="false" /><inkscape:path-effect
       effect="fillet_chamfer"
       id="path-effect12"
       is_visible="true"
       lpeversion="1"
       nodesatellites_param="F,0,0,1,0,0,0,1 @ F,0,0,1,0,0,0,1 @ F,0,0,1,0,0,0,1 @ F,0,0,1,0,0,0,1 @ F,0,0,1,0,0,0,1 @ F,0,0,1,0,0,0,1 @ F,0,0,1,0,0.61919214,0,1 @ F,0,0,1,0,0.53312822,0,1"
       radius="0"
       unit="px"
       method="auto"
       mode="F"
       chamfer_steps="1"
       flexible="false"
       use_knot_distance="true"
       apply_no_radius="true"
       apply_with_radius="true"
       only_selected="false"
       hide_knots="false" /><inkscape:path-effect
       effect="fillet_chamfer"
       id="path-effect11"
       is_visible="true"
       lpeversion="1"
       nodesatellites_param="F,0,0,1,0,1.1065417,0,1 @ F,0,0,1,0,0,0,1 @ F,0,0,1,0,1.0252178,0,1 @ F,0,0,1,0,0.95523108,0,1"
       radius="0"
       unit="px"
       method="auto"
       mode="F"
       chamfer_steps="1"
       flexible="false"
       use_knot_distance="true"
       apply_no_radius="true"
       apply_with_radius="true"
       only_selected="false"
       hide_knots="false" /><inkscape:path-effect
       effect="fillet_chamfer"
       id="path-effect10"
       is_visible="true"
       lpeversion="1"
       nodesatellites_param="F,0,0,1,0,1.1390712,0,1 @ F,0,0,1,0,0,0,1 @ F,0,0,1,0,1.0740121,0,1 @ F,0,0,1,0,0.86141968,0,1"
       radius="0"
       unit="px"
       method="auto"
       mode="F"
       chamfer_steps="1"
       flexible="false"
       use_knot_distance="true"
       apply_no_radius="true"
       apply_with_radius="true"
       only_selected="false"
       hide_knots="false" /><inkscape:path-effect
       effect="fillet_chamfer"
       id="path-effect9"
       is_visible="true"
       lpeversion="1"
       nodesatellites_param="F,0,0,1,0,1.1065417,0,1 @ F,0,0,1,0,0,0,1 @ F,0,0,1,0,1.0577473,0,1 @ F,0,0,1,0,0.97149585,0,1"
       radius="0"
       unit="px"
       method="auto"
       mode="F"
       chamfer_steps="1"
       flexible="false"
       use_knot_distance="true"
       apply_no_radius="true"
       apply_with_radius="true"
       only_selected="false"
       hide_knots="false" /><inkscape:path-effect
       effect="fillet_chamfer"
       id="path-effect8"
       is_visible="true"
       lpeversion="1"
       nodesatellites_param="F,0,0,1,0,1.2691894,0,1 @ F,0,0,1,0,0,0,1 @ F,0,0,1,0,1.0902769,0,1 @ F,0,0,1,0,0.87390722,0,1"
       radius="0"
       unit="px"
       method="auto"
       mode="F"
       chamfer_steps="1"
       flexible="false"
       use_knot_distance="true"
       apply_no_radius="true"
       apply_with_radius="true"
       only_selected="false"
       hide_knots="false" /><inkscape:path-effect
       effect="fillet_chamfer"
       id="path-effect7"
       is_visible="true"
       lpeversion="1"
       nodesatellites_param="F,0,0,1,0,0,0,1 @ F,0,0,1,0,0,0,1 @ F,0,0,1,0,0,0,1 @ F,0,0,1,0,0,0,1 @ F,0,0,1,0,0.28497839,0,1 @ F,0,0,1,0,0,0,1 @ F,0,0,1,0,0,0,1 @ F,0,0,1,0,0.23002928,0,1 @ F,0,0,1,0,0,0,1 @ F,0,0,1,0,0,0,1 @ F,0,0,1,0,0,0,1 @ F,0,0,1,0,0,0,1"
       radius="0"
       unit="px"
       method="auto"
       mode="F"
       chamfer_steps="1"
       flexible="false"
       use_knot_distance="true"
       apply_no_radius="true"
       apply_with_radius="true"
       only_selected="false"
       hide_knots="false" /><linearGradient
       id="swatch4"
       inkscape:swatch="solid"><stop
         style="stop-color:#000000;stop-opacity:1;"
         offset="0"
         id="stop4" /></linearGradient><inkscape:path-effect
       effect="fillet_chamfer"
       id="path-effect7-3"
       is_visible="true"
       lpeversion="1"
       nodesatellites_param="F,0,0,1,0,0,0,1 @ F,0,0,1,0,0,0,1 @ F,0,0,1,0,0,0,1 @ F,0,0,1,0,0,0,1 @ F,0,0,1,0,0.28497839,0,1 @ F,0,0,1,0,0,0,1 @ F,0,0,1,0,0,0,1 @ F,0,0,1,0,0.23002928,0,1 @ F,0,0,1,0,0,0,1 @ F,0,0,1,0,0,0,1 @ F,0,0,1,0,0,0,1 @ F,0,0,1,0,0,0,1"
       radius="0"
       unit="px"
       method="auto"
       mode="F"
       chamfer_steps="1"
       flexible="false"
       use_knot_distance="true"
       apply_no_radius="true"
       apply_with_radius="true"
       only_selected="false"
       hide_knots="false" /><inkscape:path-effect
       effect="fillet_chamfer"
       id="path-effect12-1"
       is_visible="true"
       lpeversion="1"
       nodesatellites_param="F,0,0,1,0,0,0,1 @ F,0,0,1,0,0,0,1 @ F,0,0,1,0,0,0,1 @ F,0,0,1,0,0,0,1 @ F,0,0,1,0,0,0,1 @ F,0,0,1,0,0,0,1 @ F,0,0,1,0,0.61919214,0,1 @ F,0,0,1,0,0.53312822,0,1"
       radius="0"
       unit="px"
       method="auto"
       mode="F"
       chamfer_steps="1"
       flexible="false"
       use_knot_distance="true"
       apply_no_radius="true"
       apply_with_radius="true"
       only_selected="false"
       hide_knots="false" /><rect
       x="5.9999998"
       y="273.99999"
       width="113"
       height="65.499998"
       id="rect36" /></defs><g
     inkscape:label="Capa 1"
     inkscape:groupmode="layer"
     id="layer1"><rect
       style="fill:#ffffff;fill-opacity:1;fill-rule:evenodd;stroke:none;stroke-width:1.08696;stroke-linecap:square;stroke-linejoin:miter;stroke-dasharray:none;stroke-opacity:1;paint-order:normal"
       id="rect42"
       width="94.05938"
       height="89.032288"
       x="2.6458333"
       y="6.7468743"
       ry="2.3280859" /><path
       id="rect4"
       style="fill:#13c172;fill-rule:evenodd;stroke-width:0.264583"
       d="M 9.0769653,0 C 4.0481844,0 0,4.0481844 0,9.0769653 V 90.922616 c 0,5.028781 4.0481844,9.077484 9.0769653,9.077484 H 90.922616 c 5.028781,0 9.077484,-4.048703 9.077484,-9.077484 V 9.0769653 C 100.0001,4.0481844 95.951397,0 90.922616,0 Z M 33.594688,8.7857684 c 2.311264,0 4.193116,1.8789766 4.193116,4.1902406 v 2.873816 h 25.222532 v -2.873816 c 0,-2.311264 1.87955,-4.1902406 4.190815,-4.1902406 2.311264,0 4.193116,1.8789766 4.193116,4.1902406 v 2.873816 h 8.178618 c 4.505291,-1.3e-5 8.186614,3.594517 8.32642,8.066473 h 0.004 v 0.263975 0.98631 28.889424 c 5.186532,2.721942 8.728997,8.159738 8.728997,14.417394 0,8.979599 -7.294246,16.274419 -16.273845,16.274419 -8.979598,0 -16.272119,-7.29482 -16.272119,-16.274419 0,-0.09227 7.67e-4,-0.184146 0.0023,-0.276052 H 19.083552 c -3.746738,-1.71e-4 -6.798334,-3.050778 -6.799508,-6.797207 V 25.166583 24.37811 23.916298 h 0.01208 c 0.240548,-4.489582 3.969878,-8.066593 8.518506,-8.066473 h 8.589246 v -2.873816 c 0,-2.311264 1.87955,-4.1902406 4.190815,-4.1902406 z m 0,1.2497106 c -1.640374,0 -2.941105,1.300157 -2.941105,2.94053 v 2.873816 1.21808 0.0012 c 0,0.102132 0.0051,0.203235 0.01495,0.302507 v 5.76e-4 5.74e-4 c 0.0099,0.09926 0.02497,0.196801 0.04428,0.29273 v 5.75e-4 5.76e-4 c 0.01935,0.09592 0.04361,0.189681 0.07189,0.281802 0.05677,0.184951 0.130927,0.362258 0.220841,0.529101 v 5.74e-4 c 0.269667,0.500186 0.68003,0.910364 1.180123,1.180123 h 5.74e-4 c 0.08324,0.04484 0.169083,0.08625 0.257074,0.123073 0.176171,0.07377 0.361449,0.13086 0.553829,0.169658 h 5.76e-4 c 0.0961,0.01933 0.193862,0.03438 0.293305,0.04428 0.09983,0.01 0.201506,0.01495 0.304232,0.01495 0.230913,-4.3e-5 0.454018,-0.02873 0.668852,-0.07764 0.07132,-0.01624 0.142493,-0.03225 0.211639,-0.05349 0.05895,-0.0181 0.11587,-0.04051 0.173108,-0.06211 0.156034,-0.05886 0.305203,-0.130795 0.446859,-0.213941 0.213681,-0.125506 0.411573,-0.274218 0.585461,-0.448009 0.0034,-0.0034 0.0064,-0.007 0.0098,-0.01035 0.194757,-0.19656 0.361861,-0.420437 0.494594,-0.666551 v -5.74e-4 c 0.08995,-0.166843 0.164053,-0.34415 0.220842,-0.529101 0.08518,-0.277426 0.131124,-0.5729 0.131124,-0.880491 v -1.21808 -2.873816 c 0,-1.640373 -1.302457,-2.94053 -2.94283,-2.94053 z m 33.606463,0 c -1.640374,0 -2.941104,1.300157 -2.941104,2.94053 v 2.873816 1.21808 0.0012 c 0,0.0101 0.0016,0.01983 0.0017,0.02991 0.0016,0.163624 0.01775,0.323317 0.04428,0.479065 0.0049,0.02896 0.0075,0.05877 0.01323,0.08742 v 5.75e-4 5.76e-4 c 0.01936,0.09592 0.0436,0.189681 0.07189,0.281802 0.05679,0.184951 0.130896,0.362258 0.220841,0.529101 v 5.74e-4 c 0.13488,0.250093 0.304972,0.477505 0.503795,0.676328 0.198824,0.198823 0.426235,0.368915 0.676328,0.503795 h 5.75e-4 c 0.08324,0.04484 0.169082,0.08625 0.257073,0.123073 h 5.75e-4 c 0.17603,0.0737 0.361055,0.130862 0.553254,0.169658 h 5.76e-4 5.75e-4 c 0.09592,0.01927 0.194051,0.03439 0.293306,0.04428 0.09983,0.01 0.201505,0.01495 0.304232,0.01495 0.754698,-2.85e-4 1.437746,-0.275976 1.955369,-0.733264 0.08671,-0.07667 0.169174,-0.158558 0.246146,-0.244996 0.07687,-0.08633 0.148814,-0.176838 0.215091,-0.272026 V 18.7593 c 0.198942,-0.285822 0.348356,-0.609459 0.435932,-0.959281 v -5.76e-4 c 0.05837,-0.233351 0.08914,-0.478549 0.08914,-0.731538 v -1.21808 h 5.75e-4 v -2.873816 c 0,-1.640373 -1.303032,-2.94053 -2.943405,-2.94053 z m -46.386524,7.064633 c -3.864273,-1.03e-4 -6.938025,3.01638 -7.187705,6.816186 H 86.59956 c -0.146257,-3.787865 -3.20222,-6.816199 -7.026675,-6.816186 h -8.178618 c -0.01354,1.866399 -1.254297,3.446082 -2.953182,3.972849 -0.130472,0.04054 -0.264114,0.07464 -0.3997,0.102369 -0.271152,0.05535 -0.551868,0.08446 -0.839083,0.08454 -0.144327,0 -0.286743,-0.0069 -0.427306,-0.02128 -0.139547,-0.01415 -0.276582,-0.03572 -0.411777,-0.06326 -1.901033,-0.387318 -3.338314,-2.064665 -3.352883,-4.075218 H 37.787229 c -0.01354,1.866399 -1.253723,3.446082 -2.952607,3.972849 -0.261126,0.08117 -0.533567,0.137185 -0.813778,0.165631 -0.139946,0.01418 -0.281968,0.02126 -0.425581,0.02128 -0.144131,0 -0.286352,-0.007 -0.42673,-0.02128 -0.139548,-0.01415 -0.277157,-0.03572 -0.412353,-0.06326 -1.901031,-0.387319 -3.337738,-2.064665 -3.352307,-4.075218 z m -7.280872,8.066471 v 36.233559 c -1.46e-4,3.072131 2.477666,5.549081 5.549797,5.549221 h 45.07355 c 0.769679,-8.266227 7.735743,-14.747507 16.201381,-14.747505 2.231175,0 4.358088,0.450222 6.295137,1.264662 V 25.166583 Z m 6.047841,5.824699 h 9.9419 v 5.752234 h -9.9419 z m 16.905888,0 h 9.941325 v 5.752234 h -9.941325 z m 16.905889,0 h 9.941324 v 5.752234 h -9.941324 z m 16.905313,0 h 9.9419 v 5.752234 h -9.9419 z M 19.581596,42.74995 h 9.9419 v 5.752235 h -9.9419 z m 16.905888,0 h 9.941325 v 5.752235 h -9.941325 z m 16.905889,0 h 9.941324 v 5.752235 h -9.941324 z m 16.905313,0 h 9.9419 v 5.752235 h -9.9419 z m 10.059797,10.701617 c -0.501173,0 -0.996442,0.02465 -1.48493,0.07247 -0.18613,0.01827 -0.366253,0.05608 -0.550379,0.08109 -0.29729,0.04027 -0.597072,0.07376 -0.888542,0.131126 -0.266421,0.05254 -0.524343,0.127377 -0.785598,0.193811 -0.202164,0.05133 -0.408533,0.09183 -0.607315,0.151253 -0.315584,0.09446 -0.621617,0.210648 -0.928225,0.324937 -0.134362,0.05005 -0.273523,0.09003 -0.406027,0.143777 -0.310273,0.12593 -0.609022,0.272986 -0.908671,0.418679 -0.122684,0.05963 -0.250737,0.109686 -0.37152,0.172532 -0.299295,0.155766 -0.585865,0.331717 -0.873015,0.506671 -0.110745,0.06748 -0.227032,0.12645 -0.335864,0.196687 -0.254909,0.164503 -0.496683,0.346962 -0.740739,0.526224 -0.133316,0.09794 -0.272671,0.188245 -0.402576,0.29043 -0.218122,0.171555 -0.422709,0.359125 -0.630894,0.542328 -0.141118,0.124208 -0.288671,0.241015 -0.425005,0.370369 -0.201084,0.190753 -0.387081,0.396503 -0.577409,0.598113 -0.128277,0.135899 -0.263867,0.264832 -0.387048,0.405452 -0.18167,0.207381 -0.347365,0.428508 -0.517598,0.645846 -0.117006,0.149373 -0.241726,0.292435 -0.353116,0.446284 -0.170964,0.236182 -0.324625,0.485153 -0.481941,0.731538 -0.09295,0.145526 -0.193792,0.285314 -0.281803,0.434208 -0.155574,0.26331 -0.292787,0.538557 -0.432482,0.812053 -0.07381,0.144421 -0.156219,0.283668 -0.225443,0.430755 -0.137061,0.291421 -0.254074,0.593919 -0.37267,0.895444 -0.05428,0.137921 -0.117072,0.271316 -0.167356,0.411203 -0.107566,0.299419 -0.194678,0.60859 -0.283528,0.916723 -0.04425,0.153438 -0.09742,0.302939 -0.136876,0.458361 -0.07553,0.297507 -0.129298,0.603555 -0.186911,0.908097 -0.03286,0.173955 -0.07555,0.344442 -0.102369,0.520473 -0.04262,0.278944 -0.06309,0.564864 -0.09029,0.84886 -0.02235,0.23542 -0.05705,0.467177 -0.06844,0.705658 -0.01156,0.242076 -0.01783,0.48542 -0.01783,0.730388 0,8.304163 6.718246,15.024134 15.022408,15.024134 8.304163,0 15.024134,-6.719971 15.024134,-15.024134 0,-5.762159 -3.235876,-10.760216 -7.991132,-13.280405 -0.275556,-0.146039 -0.569184,-0.260286 -0.854611,-0.389349 -0.331163,-0.149638 -0.662282,-0.300054 -1.002414,-0.425005 -0.221261,-0.08115 -0.450886,-0.143606 -0.676903,-0.214515 -0.327642,-0.10306 -0.653768,-0.21068 -0.987461,-0.291004 -0.295319,-0.07064 -0.599934,-0.115564 -0.901771,-0.168507 -0.273705,-0.04842 -0.544975,-0.109451 -0.821254,-0.142628 -0.587032,-0.06953 -1.182696,-0.110421 -1.788588,-0.110421 z m -60.776887,1.057625 h 9.9419 v 5.752235 h -9.9419 z m 16.905888,0 h 9.941325 v 5.752235 h -9.941325 z m 16.905889,0 h 9.941324 v 5.752235 h -9.941324 z m 23.267738,3.054976 c 3.595538,0 6.52288,2.925582 6.52288,6.518855 0,1.674956 -0.636007,3.204935 -1.679317,4.361048 l 7.139396,7.956625 c 0.204575,0.228791 0.185277,0.580021 -0.04313,0.785023 -0.228329,0.205014 -0.579529,0.18649 -0.785023,-0.04141 l -7.124444,-7.939947 c -1.110409,0.874868 -2.510585,1.397513 -4.03036,1.397513 -3.595539,0 -6.525756,-2.92558 -6.525756,-6.518854 0,-3.593273 2.930217,-6.518855 6.525756,-6.518855 z m 0,1.249711 c -2.920696,0 -5.27547,2.351901 -5.27547,5.269144 0,2.917245 2.354774,5.268569 5.27547,5.268569 2.920694,0 5.273169,-2.351324 5.273169,-5.268569 0,-2.917243 -2.352475,-5.269144 -5.273169,-5.269144 z m -58.168177,21.94348 c 0.533346,0 1.018075,0.04282 1.45445,0.127674 0.436373,0.07273 0.818335,0.163507 1.145615,0.272602 0.327281,0.09697 0.599618,0.199739 0.817805,0.308833 0.218186,0.109093 0.375767,0.194165 0.472739,0.254773 l -0.817805,2.290657 c -0.387888,-0.206066 -0.842932,-0.381342 -1.364157,-0.526799 -0.509103,-0.145459 -1.090893,-0.218542 -1.745454,-0.218542 -0.436374,0 -0.866291,0.07308 -1.290543,0.218542 -0.412131,0.145457 -0.782103,0.381828 -1.109385,0.709108 -0.315158,0.315159 -0.569799,0.726804 -0.763744,1.235908 -0.193944,0.509103 -0.291005,1.127434 -0.291005,1.854725 0,0.581833 0.06109,1.127656 0.18231,1.636759 0.133336,0.496981 0.338871,0.926897 0.617667,1.290543 0.290916,0.363645 0.66717,0.654827 1.127787,0.873014 0.460618,0.206067 1.017854,0.308834 1.672415,0.308834 0.412132,0 0.782104,-0.02398 1.109384,-0.07246 0.327282,-0.04849 0.617888,-0.103298 0.87244,-0.163905 0.254552,-0.07273 0.478933,-0.15152 0.672877,-0.23637 0.193944,-0.08485 0.369795,-0.163641 0.527375,-0.23637 l 0.781572,2.272829 c -0.400009,0.24243 -0.963529,0.460529 -1.690818,0.654474 -0.727291,0.193943 -1.569428,0.291005 -2.527028,0.291005 -2.048534,0 -3.612345,-0.569801 -4.691159,-1.709223 -1.066693,-1.139422 -1.599952,-2.757469 -1.599952,-4.854491 0,-1.042449 0.163287,-1.969659 0.490567,-2.7818 0.327282,-0.824262 0.776043,-1.515101 1.345755,-2.07269 0.56971,-0.569712 1.248561,-1.000202 2.036458,-1.291119 0.787899,-0.290916 1.642599,-0.436507 2.563834,-0.436507 z m 10.272588,0 c 0.848504,0 1.582168,0.09078 2.200364,0.272601 0.618198,0.181823 1.126903,0.382227 1.526913,0.600414 l -0.817803,2.236022 c -0.351524,-0.181823 -0.745475,-0.339403 -1.181849,-0.47274 -0.424253,-0.145458 -0.939816,-0.217966 -1.545892,-0.217966 -0.678804,0 -1.169239,0.09706 -1.472277,0.291004 -0.290916,0.181823 -0.436507,0.466724 -0.436507,0.854612 0,0.230308 0.05424,0.42443 0.163331,0.58201 0.109093,0.157579 0.260967,0.302595 0.45491,0.435932 0.206066,0.121215 0.436154,0.236546 0.690705,0.34564 0.266674,0.09697 0.557856,0.19974 0.873015,0.308834 0.654561,0.24243 1.223788,0.485082 1.708647,0.727512 0.484861,0.230309 0.885093,0.50322 1.200251,0.818379 0.327282,0.315159 0.569933,0.684556 0.727513,1.108809 0.15758,0.424253 0.236369,0.939817 0.236369,1.545891 0,1.175786 -0.41222,2.091007 -1.236483,2.745568 -0.824262,0.64244 -2.066631,0.963308 -3.727277,0.963308 -0.55759,0 -1.06059,-0.03654 -1.509085,-0.109272 -0.448496,-0.06061 -0.848728,-0.139396 -1.200251,-0.236369 -0.339402,-0.09697 -0.636291,-0.19974 -0.890843,-0.308833 -0.242431,-0.109093 -0.448541,-0.211861 -0.618242,-0.308834 l 0.799975,-2.255 c 0.375767,0.206066 0.836518,0.393905 1.381986,0.563606 0.55759,0.15758 1.23644,0.236371 2.03646,0.236371 0.400009,0 0.727158,-0.03026 0.981709,-0.09087 0.266674,-0.07273 0.478491,-0.163507 0.636071,-0.272602 0.157579,-0.121214 0.267204,-0.260524 0.327811,-0.418103 0.06061,-0.157579 0.09087,-0.33343 0.09087,-0.527375 0,-0.412131 -0.194121,-0.751268 -0.582009,-1.017942 -0.387889,-0.278794 -1.05475,-0.576259 -2.000228,-0.891418 -0.412131,-0.145458 -0.824351,-0.308745 -1.236483,-0.490568 -0.412131,-0.193943 -0.781528,-0.430314 -1.108809,-0.709108 -0.32728,-0.290916 -0.59391,-0.636336 -0.799976,-1.036345 -0.206065,-0.412132 -0.309408,-0.909424 -0.309408,-1.491257 0,-0.581832 0.10905,-1.103102 0.327237,-1.563719 0.218187,-0.472739 0.52764,-0.872396 0.92765,-1.199677 0.40001,-0.327281 0.884738,-0.576215 1.454449,-0.745916 0.569711,-0.181822 1.212019,-0.272601 1.927189,-0.272601 z M 6.8561893,81.048363 H 9.6926244 V 93.648991 H 6.8561893 Z"
       sodipodi:nodetypes="sssssssssssccssscccccccssscccccccccssssccsccccccscccccccccssccscccsscssssccssscccsccsccccccccccsccccsccsscccccccccsccccccsccccccscccccccccccccccccccccccccccccccccccccccccccscccccccscssssscssscccccccsscccsssssccccccscccccccccccccccsscccccsssssssssccscccscssscccsscsccsscsccsssscccscsscccccsscsccccccsccsscccccscscsccccc" /><path
       style="fill:#ffffff;fill-opacity:1;fill-rule:evenodd;stroke:#000000;stroke-width:1;stroke-dasharray:none;stroke-opacity:1"
       id="rect1"
       width="59.494194"
       height="34.424316"
       x="23.412674"
       y="54.48074"
       ry="0"
       rx="0"
       inkscape:path-effect="#path-effect19"
       sodipodi:type="rect"
       d="m 23.412674,54.48074 h 59.494194 v 27.913631 a 6.5106854,6.5106854 135 0 1 -6.510685,6.510685 H 28.351815 a 4.939141,4.939141 45 0 1 -4.939141,-4.939141 z"
       transform="translate(90.222914,-10.451041)" /><rect
       style="fill:#8e8e8e;fill-opacity:1;fill-rule:evenodd;stroke-width:4;stroke-opacity:0.40552"
       id="rect2"
       width="7.9529791"
       height="4.6017241"
       x="-126.92612"
       y="-53.790794"
       ry="0"
       rx="0"
       transform="scale(-1)" /><rect
       style="fill:#919191;fill-opacity:1;fill-rule:evenodd;stroke-width:4;stroke-opacity:0.40552"
       id="rect3"
       width="7.9529791"
       height="4.6017241"
       x="-140.45039"
       y="-53.790794"
       ry="0"
       rx="0"
       transform="scale(-1)" /><rect
       style="fill:#919191;fill-opacity:1;fill-rule:evenodd;stroke-width:4;stroke-opacity:0.40552"
       id="rect5"
       width="7.9529791"
       height="4.6017241"
       x="-153.97466"
       y="-53.790794"
       ry="0"
       rx="0"
       transform="scale(-1)" /><rect
       style="fill:#919191;fill-opacity:1;fill-rule:evenodd;stroke-width:4;stroke-opacity:0.40552"
       id="rect6"
       width="7.9529791"
       height="4.6017241"
       x="-167.49892"
       y="-53.790794"
       ry="0"
       rx="0"
       transform="scale(-1)" /><rect
       style="fill:#8e8e8e;fill-opacity:1;fill-rule:evenodd;stroke-width:4;stroke-opacity:0.40552"
       id="rect7"
       width="7.9529791"
       height="4.6017241"
       x="-126.92612"
       y="-63.197746"
       ry="0"
       rx="0"
       transform="scale(-1)" /><rect
       style="fill:#8e8e8e;fill-opacity:1;fill-rule:evenodd;stroke-width:4;stroke-opacity:0.40552"
       id="rect8"
       width="7.9529791"
       height="4.6017241"
       x="-140.45039"
       y="-63.197746"
       ry="0"
       rx="0"
       transform="scale(-1)" /><rect
       style="fill:#8e8e8e;fill-opacity:1;fill-rule:evenodd;stroke-width:4;stroke-opacity:0.40552"
       id="rect9"
       width="7.9529791"
       height="4.6017241"
       x="-153.97466"
       y="-63.197746"
       ry="0"
       rx="0"
       transform="scale(-1)" /><rect
       style="fill:#8e8e8e;fill-opacity:1;fill-rule:evenodd;stroke-width:4;stroke-opacity:0.40552"
       id="rect10"
       width="7.9529791"
       height="4.6017241"
       x="-167.49892"
       y="-63.197746"
       ry="0"
       rx="0"
       transform="scale(-1)" /><rect
       style="fill:#8e8e8e;fill-opacity:1;fill-rule:evenodd;stroke-width:4;stroke-opacity:0.40552"
       id="rect11"
       width="7.9529791"
       height="4.6017241"
       x="-167.49892"
       y="-72.604698"
       ry="0"
       rx="0"
       transform="scale(-1)" /><rect
       style="fill:#8e8e8e;fill-opacity:1;fill-rule:evenodd;stroke-width:4;stroke-opacity:0.40552"
       id="rect12"
       width="7.9529791"
       height="4.6017241"
       x="-153.97466"
       y="-72.604698"
       ry="0"
       rx="0"
       transform="scale(-1)" /><rect
       style="fill:#8e8e8e;fill-opacity:1;fill-rule:evenodd;stroke-width:4;stroke-opacity:0.40552"
       id="rect13"
       width="7.9529791"
       height="4.6017241"
       x="-140.45039"
       y="-72.604698"
       ry="0"
       rx="0"
       transform="scale(-1)" /><rect
       style="fill:#8e8e8e;fill-opacity:1;fill-rule:evenodd;stroke-width:4;stroke-opacity:0.40552"
       id="rect14"
       width="7.9529791"
       height="4.6017241"
       x="-126.92612"
       y="-72.604698"
       ry="0"
       rx="0"
       transform="scale(-1)" /><circle
       style="fill:#ffffff;fill-opacity:1;fill-rule:evenodd;stroke:#000000;stroke-width:1.85692;stroke-dasharray:none;stroke-opacity:1"
       id="path14"
       cx="170.65625"
       cy="75.40625"
       r="9.253026" /><ellipse
       style="fill:#00c5ff;fill-opacity:1;fill-rule:evenodd;stroke:#000000;stroke-width:0.928468;stroke-dasharray:none;stroke-opacity:1"
       id="circle15"
       cx="168.46861"
       cy="72.809402"
       rx="3.4885273"
       ry="3.4854672" /><path
       style="fill:none;fill-opacity:1;fill-rule:evenodd;stroke:#000000;stroke-width:1.23795;stroke-linecap:round;stroke-linejoin:round;stroke-dasharray:none;stroke-opacity:1;paint-order:normal"
       d="m 171.03282,75.545293 4.27744,4.767666"
       id="path15"
       sodipodi:nodetypes="cc" /><path
       style="fill:#ffffff;fill-opacity:1;fill-rule:evenodd;stroke:#000000;stroke-width:1;stroke-dasharray:none;stroke-opacity:1"
       id="rect16"
       width="59.493999"
       height="6.4542446"
       x="23.412674"
       y="48.026756"
       ry="0"
       rx="0"
       inkscape:path-effect="#path-effect21"
       sodipodi:type="rect"
       d="m 29.736251,48.026756 h 47.005882 a 6.1645401,6.1645401 45 0 1 6.16454,6.16454 v 0.289705 H 23.412674 v -0.130667 a 6.3235773,6.3235773 135 0 1 6.323577,-6.323578 z"
       transform="translate(90.222914,-10.451041)" /><rect
       style="fill:#ffffff;fill-opacity:1;fill-rule:evenodd;stroke:#000000;stroke-width:1;stroke-linecap:square;stroke-linejoin:miter;stroke-dasharray:none;stroke-opacity:1;paint-order:normal"
       id="rect17"
       width="5.7062044"
       height="8.9802551"
       x="127.33053"
       y="31.924541"
       ry="2.8531022" /><rect
       style="fill:#ffffff;fill-opacity:1;fill-rule:evenodd;stroke:#000000;stroke-width:1;stroke-linecap:square;stroke-linejoin:miter;stroke-dasharray:none;stroke-opacity:1;paint-order:normal"
       id="rect18"
       width="5.7062044"
       height="8.9802551"
       x="154.21523"
       y="31.924541"
       ry="2.8531022" /><text
       xml:space="preserve"
       transform="matrix(0.45454595,0,0,0.45454595,101.79022,-57.910349)"
       id="text21"
       style="font-style:normal;font-variant:normal;font-weight:bold;font-stretch:normal;font-size:32px;font-family:Ubuntu;-inkscape-font-specification:'Ubuntu Bold';text-align:start;writing-mode:lr-tb;direction:ltr;white-space:pre;shape-inside:url(#rect21);display:inline;fill:#000000;fill-opacity:1;fill-rule:evenodd;stroke:none;stroke-width:1.133;stroke-linecap:square;stroke-linejoin:miter;stroke-dasharray:none;stroke-opacity:1;paint-order:normal"><tspan
         x="6"
         y="303.83975"
         id="tspan1">ICS</tspan></text><g
       id="ellipse33"
       style="opacity:1"><path
         style="baseline-shift:baseline;display:inline;overflow:visible;vector-effect:none;fill:none;fill-rule:evenodd;enable-background:accumulate;stop-color:#000000;stop-opacity:1"
         d="m 79.309657,69.269836 a 5.3008599,5.2962103 0 0 1 -5.30086,5.296211 5.3008599,5.2962103 0 0 1 -5.30086,-5.296211 5.3008599,5.2962103 0 0 1 5.30086,-5.29621 5.3008599,5.2962103 0 0 1 5.30086,5.29621 z"
         id="path40" /></g></g></svg>
